<mxfile host="Electron" modified="2024-10-07T19:16:34.004Z" agent="Mozilla/5.0 (Macintosh; Intel Mac OS X 10_15_7) AppleWebKit/537.36 (KHTML, like Gecko) draw.io/22.1.18 Chrome/120.0.6099.199 Electron/28.1.2 Safari/537.36" etag="AsaCWgLkZ6EBW2il1ze7" version="22.1.18" type="device">
  <diagram name="Page-1" id="pqIKtAKNooPapx2rZfAP">
    <mxGraphModel dx="4068" dy="1808" grid="0" gridSize="10" guides="1" tooltips="1" connect="1" arrows="1" fold="1" page="0" pageScale="1" pageWidth="850" pageHeight="1100" math="0" shadow="0">
      <root>
        <mxCell id="0" />
        <mxCell id="1" parent="0" />
        <mxCell id="y7Cn7mVjODxatn3voxTT-78" value="" style="rounded=0;whiteSpace=wrap;html=1;fontSize=16;fillColor=#d5e8d4;strokeColor=#82b366;opacity=10;" vertex="1" parent="1">
          <mxGeometry x="2036" y="504" width="1242" height="734" as="geometry" />
        </mxCell>
        <mxCell id="y7Cn7mVjODxatn3voxTT-29" value="AWS Account" style="points=[[0,0],[0.25,0],[0.5,0],[0.75,0],[1,0],[1,0.25],[1,0.5],[1,0.75],[1,1],[0.75,1],[0.5,1],[0.25,1],[0,1],[0,0.75],[0,0.5],[0,0.25]];outlineConnect=0;gradientColor=none;html=1;whiteSpace=wrap;fontSize=12;fontStyle=0;container=1;pointerEvents=0;collapsible=0;recursiveResize=0;shape=mxgraph.aws4.group;grIcon=mxgraph.aws4.group_account;strokeColor=#CD2264;fillColor=none;verticalAlign=top;align=left;spacingLeft=30;fontColor=#CD2264;dashed=0;" vertex="1" parent="1">
          <mxGeometry x="-370" y="384.5" width="1050" height="985.5" as="geometry" />
        </mxCell>
        <mxCell id="y7Cn7mVjODxatn3voxTT-34" value="Public subnet" style="points=[[0,0],[0.25,0],[0.5,0],[0.75,0],[1,0],[1,0.25],[1,0.5],[1,0.75],[1,1],[0.75,1],[0.5,1],[0.25,1],[0,1],[0,0.75],[0,0.5],[0,0.25]];outlineConnect=0;gradientColor=none;html=1;whiteSpace=wrap;fontSize=12;fontStyle=0;container=1;pointerEvents=0;collapsible=0;recursiveResize=0;shape=mxgraph.aws4.group;grIcon=mxgraph.aws4.group_security_group;grStroke=0;strokeColor=#7AA116;fillColor=#F2F6E8;verticalAlign=top;align=left;spacingLeft=30;fontColor=#248814;dashed=0;" vertex="1" parent="y7Cn7mVjODxatn3voxTT-29">
          <mxGeometry x="52" y="377" width="678" height="286" as="geometry" />
        </mxCell>
        <mxCell id="y7Cn7mVjODxatn3voxTT-31" value="ECR" style="sketch=0;points=[[0,0,0],[0.25,0,0],[0.5,0,0],[0.75,0,0],[1,0,0],[0,1,0],[0.25,1,0],[0.5,1,0],[0.75,1,0],[1,1,0],[0,0.25,0],[0,0.5,0],[0,0.75,0],[1,0.25,0],[1,0.5,0],[1,0.75,0]];outlineConnect=0;fontColor=#232F3E;fillColor=#ED7100;strokeColor=#ffffff;dashed=0;verticalLabelPosition=bottom;verticalAlign=top;align=center;html=1;fontSize=19;fontStyle=1;aspect=fixed;shape=mxgraph.aws4.resourceIcon;resIcon=mxgraph.aws4.ecr;spacingTop=8;labelBackgroundColor=default;" vertex="1" parent="y7Cn7mVjODxatn3voxTT-29">
          <mxGeometry x="105" y="81.5" width="146.5" height="146.5" as="geometry" />
        </mxCell>
        <mxCell id="y7Cn7mVjODxatn3voxTT-17" value="&lt;b style=&quot;font-size: 19px;&quot;&gt;SECRETS MANAGER&lt;/b&gt;" style="sketch=0;points=[[0,0,0],[0.25,0,0],[0.5,0,0],[0.75,0,0],[1,0,0],[0,1,0],[0.25,1,0],[0.5,1,0],[0.75,1,0],[1,1,0],[0,0.25,0],[0,0.5,0],[0,0.75,0],[1,0.25,0],[1,0.5,0],[1,0.75,0]];outlineConnect=0;fontColor=#171B21;fillColor=#DD344C;strokeColor=#ffffff;dashed=0;verticalLabelPosition=bottom;verticalAlign=top;align=center;html=1;fontSize=19;fontStyle=0;aspect=fixed;shape=mxgraph.aws4.resourceIcon;resIcon=mxgraph.aws4.secrets_manager;spacingTop=8;labelBackgroundColor=default;" vertex="1" parent="y7Cn7mVjODxatn3voxTT-29">
          <mxGeometry x="526" y="732.5" width="145" height="145" as="geometry" />
        </mxCell>
        <mxCell id="y7Cn7mVjODxatn3voxTT-18" value="DYNAMODB TABLE" style="sketch=0;points=[[0,0,0],[0.25,0,0],[0.5,0,0],[0.75,0,0],[1,0,0],[0,1,0],[0.25,1,0],[0.5,1,0],[0.75,1,0],[1,1,0],[0,0.25,0],[0,0.5,0],[0,0.75,0],[1,0.25,0],[1,0.5,0],[1,0.75,0]];outlineConnect=0;fontColor=#171B21;fillColor=#C925D1;strokeColor=#ffffff;dashed=0;verticalLabelPosition=bottom;verticalAlign=top;align=center;html=1;fontSize=19;fontStyle=1;aspect=fixed;shape=mxgraph.aws4.resourceIcon;resIcon=mxgraph.aws4.dynamodb;spacingTop=8;labelBackgroundColor=default;" vertex="1" parent="y7Cn7mVjODxatn3voxTT-29">
          <mxGeometry x="834" y="438.75" width="145" height="145" as="geometry" />
        </mxCell>
        <mxCell id="y7Cn7mVjODxatn3voxTT-35" value="VPC" style="points=[[0,0],[0.25,0],[0.5,0],[0.75,0],[1,0],[1,0.25],[1,0.5],[1,0.75],[1,1],[0.75,1],[0.5,1],[0.25,1],[0,1],[0,0.75],[0,0.5],[0,0.25]];outlineConnect=0;gradientColor=none;html=1;whiteSpace=wrap;fontSize=12;fontStyle=0;container=1;pointerEvents=0;collapsible=0;recursiveResize=0;shape=mxgraph.aws4.group;grIcon=mxgraph.aws4.group_vpc2;strokeColor=#8C4FFF;fillColor=none;verticalAlign=top;align=left;spacingLeft=30;fontColor=#AAB7B8;dashed=0;" vertex="1" parent="y7Cn7mVjODxatn3voxTT-29">
          <mxGeometry x="29" y="318.5" width="737" height="385.5" as="geometry" />
        </mxCell>
        <mxCell id="y7Cn7mVjODxatn3voxTT-40" value="USER + POLICY" style="sketch=0;outlineConnect=0;fontColor=#232F3E;gradientColor=none;fillColor=#DD344C;strokeColor=none;dashed=0;verticalLabelPosition=bottom;verticalAlign=top;align=center;html=1;fontSize=19;fontStyle=1;aspect=fixed;pointerEvents=1;shape=mxgraph.aws4.identity_access_management_iam_roles_anywhere;spacingTop=7;labelBackgroundColor=default;" vertex="1" parent="y7Cn7mVjODxatn3voxTT-29">
          <mxGeometry x="815.25" y="89.5" width="142.5" height="142.5" as="geometry" />
        </mxCell>
        <mxCell id="y7Cn7mVjODxatn3voxTT-55" value="" style="shape=image;verticalLabelPosition=bottom;labelBackgroundColor=default;verticalAlign=top;aspect=fixed;imageAspect=0;image=https://openupthecloud.com/wp-content/uploads/2019/10/0_3i0MOCi2wHX607Jp.png;" vertex="1" parent="y7Cn7mVjODxatn3voxTT-29">
          <mxGeometry x="869" y="886.5" width="169.67" height="84.83" as="geometry" />
        </mxCell>
        <mxCell id="y7Cn7mVjODxatn3voxTT-24" style="edgeStyle=orthogonalEdgeStyle;rounded=0;orthogonalLoop=1;jettySize=auto;html=1;fontSize=12;startSize=8;endSize=8;flowAnimation=1;" edge="1" parent="1" source="y7Cn7mVjODxatn3voxTT-16" target="y7Cn7mVjODxatn3voxTT-18">
          <mxGeometry relative="1" as="geometry">
            <Array as="points">
              <mxPoint x="511" y="924" />
            </Array>
          </mxGeometry>
        </mxCell>
        <mxCell id="y7Cn7mVjODxatn3voxTT-25" style="edgeStyle=orthogonalEdgeStyle;rounded=0;orthogonalLoop=1;jettySize=auto;html=1;fontSize=12;startSize=8;endSize=8;flowAnimation=1;exitX=0.5;exitY=1;exitDx=0;exitDy=0;exitPerimeter=0;" edge="1" parent="1" source="y7Cn7mVjODxatn3voxTT-16" target="y7Cn7mVjODxatn3voxTT-17">
          <mxGeometry relative="1" as="geometry" />
        </mxCell>
        <mxCell id="y7Cn7mVjODxatn3voxTT-16" value="&lt;font style=&quot;font-size: 19px;&quot;&gt;&lt;b style=&quot;font-size: 19px;&quot;&gt;FARGATE ECS&lt;/b&gt;&lt;/font&gt;" style="sketch=0;points=[[0,0,0],[0.25,0,0],[0.5,0,0],[0.75,0,0],[1,0,0],[0,1,0],[0.25,1,0],[0.5,1,0],[0.75,1,0],[1,1,0],[0,0.25,0],[0,0.5,0],[0,0.75,0],[1,0.25,0],[1,0.5,0],[1,0.75,0]];outlineConnect=0;fontColor=#171B21;fillColor=#ED7100;strokeColor=#ffffff;dashed=0;verticalLabelPosition=bottom;verticalAlign=top;align=center;html=1;fontSize=19;fontStyle=0;aspect=fixed;shape=mxgraph.aws4.resourceIcon;resIcon=mxgraph.aws4.fargate;spacingTop=8;labelBackgroundColor=default;" vertex="1" parent="1">
          <mxGeometry x="156" y="821" width="145" height="145" as="geometry" />
        </mxCell>
        <mxCell id="y7Cn7mVjODxatn3voxTT-19" value="CLOUDWATCH" style="sketch=0;points=[[0,0,0],[0.25,0,0],[0.5,0,0],[0.75,0,0],[1,0,0],[0,1,0],[0.25,1,0],[0.5,1,0],[0.75,1,0],[1,1,0],[0,0.25,0],[0,0.5,0],[0,0.75,0],[1,0.25,0],[1,0.5,0],[1,0.75,0]];points=[[0,0,0],[0.25,0,0],[0.5,0,0],[0.75,0,0],[1,0,0],[0,1,0],[0.25,1,0],[0.5,1,0],[0.75,1,0],[1,1,0],[0,0.25,0],[0,0.5,0],[0,0.75,0],[1,0.25,0],[1,0.5,0],[1,0.75,0]];outlineConnect=0;fontColor=#171B21;fillColor=#E7157B;strokeColor=#ffffff;dashed=0;verticalLabelPosition=bottom;verticalAlign=top;align=center;html=1;fontSize=19;fontStyle=1;aspect=fixed;shape=mxgraph.aws4.resourceIcon;resIcon=mxgraph.aws4.cloudwatch_2;spacingTop=8;labelBackgroundColor=default;" vertex="1" parent="1">
          <mxGeometry x="-254" y="1123" width="145" height="145" as="geometry" />
        </mxCell>
        <mxCell id="y7Cn7mVjODxatn3voxTT-21" style="edgeStyle=orthogonalEdgeStyle;rounded=0;orthogonalLoop=1;jettySize=auto;html=1;fontSize=12;startSize=8;endSize=8;flowAnimation=1;" edge="1" parent="1" source="y7Cn7mVjODxatn3voxTT-20" target="y7Cn7mVjODxatn3voxTT-16">
          <mxGeometry relative="1" as="geometry" />
        </mxCell>
        <mxCell id="y7Cn7mVjODxatn3voxTT-20" value="PUBLIC ALB" style="sketch=0;points=[[0,0,0],[0.25,0,0],[0.5,0,0],[0.75,0,0],[1,0,0],[0,1,0],[0.25,1,0],[0.5,1,0],[0.75,1,0],[1,1,0],[0,0.25,0],[0,0.5,0],[0,0.75,0],[1,0.25,0],[1,0.5,0],[1,0.75,0]];outlineConnect=0;fontColor=#171B21;fillColor=#ED7100;strokeColor=#ffffff;dashed=0;verticalLabelPosition=bottom;verticalAlign=top;align=center;html=1;fontSize=19;fontStyle=1;aspect=fixed;shape=mxgraph.aws4.resourceIcon;resIcon=mxgraph.aws4.elastic_load_balancing;spacingTop=8;labelBackgroundColor=default;" vertex="1" parent="1">
          <mxGeometry x="-254" y="821" width="145" height="145" as="geometry" />
        </mxCell>
        <mxCell id="y7Cn7mVjODxatn3voxTT-23" style="edgeStyle=orthogonalEdgeStyle;rounded=0;orthogonalLoop=1;jettySize=auto;html=1;entryX=1;entryY=0.5;entryDx=0;entryDy=0;entryPerimeter=0;fontSize=12;startSize=8;endSize=8;flowAnimation=1;" edge="1" parent="1" source="y7Cn7mVjODxatn3voxTT-16" target="y7Cn7mVjODxatn3voxTT-19">
          <mxGeometry relative="1" as="geometry">
            <Array as="points">
              <mxPoint x="24" y="924" />
              <mxPoint x="24" y="1196" />
            </Array>
          </mxGeometry>
        </mxCell>
        <mxCell id="y7Cn7mVjODxatn3voxTT-28" value="{ REST }" style="edgeStyle=none;curved=1;rounded=0;orthogonalLoop=1;jettySize=auto;html=1;fontSize=30;startSize=8;endSize=8;flowAnimation=1;" edge="1" parent="1" source="y7Cn7mVjODxatn3voxTT-27" target="y7Cn7mVjODxatn3voxTT-20">
          <mxGeometry x="-0.1347" relative="1" as="geometry">
            <mxPoint x="1" as="offset" />
          </mxGeometry>
        </mxCell>
        <mxCell id="y7Cn7mVjODxatn3voxTT-27" value="devices" style="sketch=0;outlineConnect=0;gradientColor=none;fontColor=#545B64;strokeColor=none;fillColor=#879196;dashed=0;verticalLabelPosition=bottom;verticalAlign=top;align=center;html=1;fontSize=12;fontStyle=0;aspect=fixed;shape=mxgraph.aws4.illustration_devices;pointerEvents=1" vertex="1" parent="1">
          <mxGeometry x="-972" y="814" width="212.33" height="155" as="geometry" />
        </mxCell>
        <mxCell id="y7Cn7mVjODxatn3voxTT-33" style="edgeStyle=orthogonalEdgeStyle;rounded=0;orthogonalLoop=1;jettySize=auto;html=1;fontSize=12;startSize=8;endSize=8;flowAnimation=1;" edge="1" parent="1" source="y7Cn7mVjODxatn3voxTT-16" target="y7Cn7mVjODxatn3voxTT-31">
          <mxGeometry relative="1" as="geometry">
            <mxPoint x="-103" y="560" as="targetPoint" />
            <Array as="points">
              <mxPoint x="24" y="860" />
              <mxPoint x="24" y="561" />
            </Array>
          </mxGeometry>
        </mxCell>
        <mxCell id="y7Cn7mVjODxatn3voxTT-43" style="edgeStyle=orthogonalEdgeStyle;rounded=0;orthogonalLoop=1;jettySize=auto;html=1;fontSize=12;startSize=8;endSize=8;flowAnimation=1;" edge="1" parent="1" source="y7Cn7mVjODxatn3voxTT-37" target="y7Cn7mVjODxatn3voxTT-16">
          <mxGeometry relative="1" as="geometry" />
        </mxCell>
        <mxCell id="y7Cn7mVjODxatn3voxTT-44" style="edgeStyle=orthogonalEdgeStyle;rounded=0;orthogonalLoop=1;jettySize=auto;html=1;fontSize=12;startSize=8;endSize=8;flowAnimation=1;" edge="1" parent="1" source="y7Cn7mVjODxatn3voxTT-45" target="y7Cn7mVjODxatn3voxTT-40">
          <mxGeometry relative="1" as="geometry" />
        </mxCell>
        <mxCell id="y7Cn7mVjODxatn3voxTT-37" value="GITHUB ACTIONS" style="shape=image;verticalLabelPosition=bottom;labelBackgroundColor=default;verticalAlign=top;aspect=fixed;imageAspect=0;image=https://seeklogo.com/images/G/github-actions-logo-031704BDC6-seeklogo.com.png;fontSize=19;fontStyle=1;spacingTop=10;" vertex="1" parent="1">
          <mxGeometry x="148.5" y="74" width="160" height="160" as="geometry" />
        </mxCell>
        <mxCell id="y7Cn7mVjODxatn3voxTT-41" value="TRIGGERS" style="edgeStyle=orthogonalEdgeStyle;rounded=0;orthogonalLoop=1;jettySize=auto;html=1;fontSize=21;startSize=8;endSize=8;flowAnimation=1;labelBackgroundColor=#FFFFFF;" edge="1" parent="1" source="y7Cn7mVjODxatn3voxTT-38" target="y7Cn7mVjODxatn3voxTT-37">
          <mxGeometry x="-0.0673" relative="1" as="geometry">
            <mxPoint as="offset" />
          </mxGeometry>
        </mxCell>
        <mxCell id="y7Cn7mVjODxatn3voxTT-38" value="REPOSITORY" style="verticalLabelPosition=bottom;html=1;verticalAlign=top;align=center;strokeColor=none;fillColor=#00BEF2;shape=mxgraph.azure.github_code;pointerEvents=1;fontSize=19;fontStyle=1;spacingTop=10;labelBackgroundColor=default;" vertex="1" parent="1">
          <mxGeometry x="-327" y="76" width="156" height="156" as="geometry" />
        </mxCell>
        <mxCell id="y7Cn7mVjODxatn3voxTT-42" style="edgeStyle=orthogonalEdgeStyle;rounded=0;orthogonalLoop=1;jettySize=auto;html=1;fontSize=12;startSize=8;endSize=8;flowAnimation=1;" edge="1" parent="1" source="y7Cn7mVjODxatn3voxTT-37" target="y7Cn7mVjODxatn3voxTT-31">
          <mxGeometry relative="1" as="geometry">
            <mxPoint x="-104" y="514" as="targetPoint" />
            <Array as="points">
              <mxPoint x="194" y="518" />
            </Array>
          </mxGeometry>
        </mxCell>
        <mxCell id="y7Cn7mVjODxatn3voxTT-46" value="" style="edgeStyle=orthogonalEdgeStyle;rounded=0;orthogonalLoop=1;jettySize=auto;html=1;fontSize=12;startSize=8;endSize=8;flowAnimation=1;" edge="1" parent="1" source="y7Cn7mVjODxatn3voxTT-37" target="y7Cn7mVjODxatn3voxTT-45">
          <mxGeometry relative="1" as="geometry">
            <mxPoint x="309" y="154" as="sourcePoint" />
            <mxPoint x="517" y="424" as="targetPoint" />
          </mxGeometry>
        </mxCell>
        <mxCell id="y7Cn7mVjODxatn3voxTT-45" value="&lt;b style=&quot;background-color: rgb(255, 255, 255);&quot;&gt;CREDENTIALS&lt;/b&gt;" style="sketch=0;outlineConnect=0;fontColor=#232F3E;gradientColor=none;fillColor=#DD344C;strokeColor=none;dashed=0;verticalLabelPosition=bottom;verticalAlign=top;align=center;html=1;fontSize=12;fontStyle=0;aspect=fixed;pointerEvents=1;shape=mxgraph.aws4.sts;" vertex="1" parent="1">
          <mxGeometry x="477.5" y="129" width="78" height="50" as="geometry" />
        </mxCell>
        <mxCell id="y7Cn7mVjODxatn3voxTT-48" value="" style="shape=image;verticalLabelPosition=bottom;labelBackgroundColor=default;verticalAlign=top;aspect=fixed;imageAspect=0;image=https://miro.medium.com/v2/resize:fit:600/1*ljHUhFnaBissdRBe7DIo6g.png;" vertex="1" parent="1">
          <mxGeometry x="-329" y="1387" width="164" height="86.1" as="geometry" />
        </mxCell>
        <mxCell id="y7Cn7mVjODxatn3voxTT-50" value="" style="shape=image;verticalLabelPosition=bottom;labelBackgroundColor=default;verticalAlign=top;aspect=fixed;imageAspect=0;image=https://huongdanjava.com/wp-content/uploads/2021/05/spring-security-logo-1.png;" vertex="1" parent="1">
          <mxGeometry x="-117" y="1394" width="216" height="72" as="geometry" />
        </mxCell>
        <mxCell id="y7Cn7mVjODxatn3voxTT-52" value="" style="shape=image;verticalLabelPosition=bottom;labelBackgroundColor=default;verticalAlign=top;aspect=fixed;imageAspect=0;image=https://cavedweller92.wordpress.com/wp-content/uploads/2019/07/swagger-logo-horizontal.png;" vertex="1" parent="1">
          <mxGeometry x="160.5" y="1394.0500000000002" width="198.5" height="74.44" as="geometry" />
        </mxCell>
        <mxCell id="y7Cn7mVjODxatn3voxTT-54" value="" style="shape=image;verticalLabelPosition=bottom;labelBackgroundColor=default;verticalAlign=top;aspect=fixed;imageAspect=0;image=https://seeklogo.com/images/J/jwt-logo-11B708E375-seeklogo.com.png;" vertex="1" parent="1">
          <mxGeometry x="432" y="1397.05" width="207" height="69" as="geometry" />
        </mxCell>
        <mxCell id="y7Cn7mVjODxatn3voxTT-56" value="Controller" style="rounded=1;whiteSpace=wrap;html=1;fontSize=25;fillColor=#d5e8d4;strokeColor=#82b366;" vertex="1" parent="1">
          <mxGeometry x="2121.5" y="865" width="233" height="125" as="geometry" />
        </mxCell>
        <mxCell id="y7Cn7mVjODxatn3voxTT-61" style="edgeStyle=orthogonalEdgeStyle;rounded=0;orthogonalLoop=1;jettySize=auto;html=1;entryX=0;entryY=0.5;entryDx=0;entryDy=0;fontSize=12;startSize=8;endSize=8;orthogonal=0;flowAnimation=0;" edge="1" parent="1" source="y7Cn7mVjODxatn3voxTT-57" target="y7Cn7mVjODxatn3voxTT-60">
          <mxGeometry relative="1" as="geometry">
            <Array as="points">
              <mxPoint x="2637" y="1115" />
              <mxPoint x="2766" y="1115" />
            </Array>
          </mxGeometry>
        </mxCell>
        <mxCell id="y7Cn7mVjODxatn3voxTT-74" style="edgeStyle=none;curved=1;rounded=0;orthogonalLoop=1;jettySize=auto;html=1;fontSize=12;startSize=8;endSize=8;orthogonal=0;flowAnimation=0;" edge="1" parent="1" source="y7Cn7mVjODxatn3voxTT-57" target="y7Cn7mVjODxatn3voxTT-72">
          <mxGeometry relative="1" as="geometry" />
        </mxCell>
        <mxCell id="y7Cn7mVjODxatn3voxTT-57" value="Service" style="rounded=1;whiteSpace=wrap;html=1;fontSize=25;fillColor=#fad9d5;strokeColor=#ae4132;" vertex="1" parent="1">
          <mxGeometry x="2515" y="865" width="233" height="125" as="geometry" />
        </mxCell>
        <mxCell id="y7Cn7mVjODxatn3voxTT-62" style="edgeStyle=orthogonalEdgeStyle;rounded=0;orthogonalLoop=1;jettySize=auto;html=1;entryX=1;entryY=0.5;entryDx=0;entryDy=0;fontSize=12;startSize=8;endSize=8;orthogonal=0;flowAnimation=0;" edge="1" parent="1" source="y7Cn7mVjODxatn3voxTT-58" target="y7Cn7mVjODxatn3voxTT-60">
          <mxGeometry relative="1" as="geometry">
            <Array as="points">
              <mxPoint x="3035" y="1082" />
              <mxPoint x="3035" y="1160" />
            </Array>
          </mxGeometry>
        </mxCell>
        <mxCell id="y7Cn7mVjODxatn3voxTT-76" style="edgeStyle=none;curved=1;rounded=0;orthogonalLoop=1;jettySize=auto;html=1;fontSize=12;startSize=8;endSize=8;orthogonal=0;flowAnimation=0;" edge="1" parent="1" source="y7Cn7mVjODxatn3voxTT-58" target="y7Cn7mVjODxatn3voxTT-73">
          <mxGeometry relative="1" as="geometry" />
        </mxCell>
        <mxCell id="y7Cn7mVjODxatn3voxTT-81" value="AWS SDK" style="edgeStyle=none;curved=1;rounded=0;orthogonalLoop=1;jettySize=auto;html=1;fontSize=16;startSize=8;endSize=8;" edge="1" parent="1" source="y7Cn7mVjODxatn3voxTT-58" target="y7Cn7mVjODxatn3voxTT-80">
          <mxGeometry relative="1" as="geometry" />
        </mxCell>
        <mxCell id="y7Cn7mVjODxatn3voxTT-58" value="Repository" style="rounded=1;whiteSpace=wrap;html=1;fontSize=25;fillColor=#b1ddf0;strokeColor=#10739e;" vertex="1" parent="1">
          <mxGeometry x="2919" y="865" width="233" height="125" as="geometry" />
        </mxCell>
        <mxCell id="y7Cn7mVjODxatn3voxTT-60" value="Domínio" style="ellipse;whiteSpace=wrap;html=1;aspect=fixed;fontSize=16;fillColor=#fff2cc;strokeColor=#d6b656;" vertex="1" parent="1">
          <mxGeometry x="2766" y="1047" width="135" height="135" as="geometry" />
        </mxCell>
        <mxCell id="y7Cn7mVjODxatn3voxTT-75" style="edgeStyle=none;curved=1;rounded=0;orthogonalLoop=1;jettySize=auto;html=1;entryX=0.75;entryY=0;entryDx=0;entryDy=0;fontSize=12;startSize=8;endSize=8;orthogonal=0;flowAnimation=1;" edge="1" parent="1" source="y7Cn7mVjODxatn3voxTT-72" target="y7Cn7mVjODxatn3voxTT-56">
          <mxGeometry relative="1" as="geometry">
            <Array as="points">
              <mxPoint x="2292" y="658.75" />
            </Array>
          </mxGeometry>
        </mxCell>
        <mxCell id="y7Cn7mVjODxatn3voxTT-84" value="Inject" style="edgeLabel;html=1;align=center;verticalAlign=middle;resizable=0;points=[];fontSize=16;" vertex="1" connectable="0" parent="y7Cn7mVjODxatn3voxTT-75">
          <mxGeometry x="-0.2194" y="45" relative="1" as="geometry">
            <mxPoint x="1" as="offset" />
          </mxGeometry>
        </mxCell>
        <mxCell id="y7Cn7mVjODxatn3voxTT-72" value="IService" style="shape=hexagon;perimeter=hexagonPerimeter2;whiteSpace=wrap;html=1;fixedSize=1;fontSize=16;fillColor=#f8cecc;strokeColor=#b85450;opacity=20;" vertex="1" parent="1">
          <mxGeometry x="2524.5" y="635" width="214" height="83" as="geometry" />
        </mxCell>
        <mxCell id="y7Cn7mVjODxatn3voxTT-77" style="edgeStyle=none;curved=1;rounded=0;orthogonalLoop=1;jettySize=auto;html=1;entryX=0.822;entryY=0;entryDx=0;entryDy=0;fontSize=12;startSize=8;endSize=8;entryPerimeter=0;orthogonal=0;flowAnimation=1;" edge="1" parent="1" target="y7Cn7mVjODxatn3voxTT-57">
          <mxGeometry relative="1" as="geometry">
            <mxPoint x="2934" y="677" as="sourcePoint" />
            <Array as="points">
              <mxPoint x="2713" y="669" />
            </Array>
          </mxGeometry>
        </mxCell>
        <mxCell id="y7Cn7mVjODxatn3voxTT-85" value="Inject" style="edgeLabel;html=1;align=center;verticalAlign=middle;resizable=0;points=[];fontSize=16;" vertex="1" connectable="0" parent="y7Cn7mVjODxatn3voxTT-77">
          <mxGeometry x="0.3262" y="52" relative="1" as="geometry">
            <mxPoint as="offset" />
          </mxGeometry>
        </mxCell>
        <mxCell id="y7Cn7mVjODxatn3voxTT-73" value="IRepository" style="shape=hexagon;perimeter=hexagonPerimeter2;whiteSpace=wrap;html=1;fixedSize=1;fontSize=16;fillColor=#dae8fc;strokeColor=#6c8ebf;opacity=20;" vertex="1" parent="1">
          <mxGeometry x="2928.5" y="635" width="214" height="83" as="geometry" />
        </mxCell>
        <mxCell id="y7Cn7mVjODxatn3voxTT-79" value="" style="shape=image;verticalLabelPosition=bottom;labelBackgroundColor=default;verticalAlign=top;aspect=fixed;imageAspect=0;image=https://miro.medium.com/v2/resize:fit:600/1*ljHUhFnaBissdRBe7DIo6g.png;" vertex="1" parent="1">
          <mxGeometry x="2104" y="542" width="164" height="86.1" as="geometry" />
        </mxCell>
        <mxCell id="y7Cn7mVjODxatn3voxTT-80" value="Dynamo" style="shape=cylinder3;whiteSpace=wrap;html=1;boundedLbl=1;backgroundOutline=1;size=15;fontSize=16;fillColor=#e1d5e7;strokeColor=#9673a6;" vertex="1" parent="1">
          <mxGeometry x="3371" y="877.75" width="138.75" height="96" as="geometry" />
        </mxCell>
        <mxCell id="y7Cn7mVjODxatn3voxTT-82" value="DTO" style="shape=parallelogram;perimeter=parallelogramPerimeter;whiteSpace=wrap;html=1;fixedSize=1;fontSize=16;fillColor=#d5e8d4;strokeColor=#82b366;" vertex="1" parent="1">
          <mxGeometry x="2083" y="962.75" width="99" height="43" as="geometry" />
        </mxCell>
        <mxCell id="y7Cn7mVjODxatn3voxTT-83" value="DTO" style="shape=parallelogram;perimeter=parallelogramPerimeter;whiteSpace=wrap;html=1;fixedSize=1;fontSize=16;fillColor=#f8cecc;strokeColor=#b85450;" vertex="1" parent="1">
          <mxGeometry x="2473" y="962.75" width="99" height="43" as="geometry" />
        </mxCell>
      </root>
    </mxGraphModel>
  </diagram>
</mxfile>
